<?xml version="1.0" encoding="UTF-8"?>
<svg width="96" height="96" viewBox="0 0 96 96" fill="none" xmlns="http://www.w3.org/2000/svg">
    <path d="M70 47.5C70 59.9264 59.9264 70 47.5 70C35.0736 70 25 59.9264 25 47.5C25 35.0736 35.0736 25 47.5 25C59.9264 25 70 35.0736 70 47.5Z" fill="white"/>
    <path d="M48 16C31.9202 16 0 32.2685 0 48.179C0 64.0895 31.9202 80 47.8803 80C63.8404 80 96 64.0895 96 48.179C96 32.2685 64.0798 16 48 16ZM35.1322 63.4829L32.3092 60.6687L39.0424 53.9565H44.6883L35.1322 63.4829ZM49.8454 67.918H45.8554V53.9664H49.8454V67.918ZM60.5686 63.4829L51.0125 53.9565H56.6584L63.3915 60.6687L60.5686 63.4829ZM67.8304 49.9888H27.8703V46.0112H43.0324L32.3092 35.3213L35.1322 32.5071L45.8554 43.197V28.082H49.8454V43.197L60.5686 32.5071L63.3915 35.3213L52.6683 46.0112H67.8304V49.9888Z" fill="#274284"/>
</svg> 