<?xml version="1.0" encoding="UTF-8"?>
<svg width="48" height="48" viewBox="0 0 48 48" fill="none" xmlns="http://www.w3.org/2000/svg">
  <!-- White background with rounded corners -->
  <rect width="48" height="48" rx="12" fill="white"/>
  <!-- Original SVG content -->
  <path d="M35 23.75C35 29.9632 29.9632 35 23.75 35C17.5368 35 12.5 29.9632 12.5 23.75C12.5 17.5368 17.5368 12.5 23.75 12.5C29.9632 12.5 35 17.5368 35 23.75Z" fill="white"/>
  <path d="M24 8C15.9601 8 0 16.1342 0 24.0895C0 32.0447 15.9601 40 23.9402 40C31.9202 40 48 32.0447 48 24.0895C48 16.1342 32.0399 8 24 8ZM17.5661 31.7415L16.1546 30.3344L19.5212 26.9782H22.3441L17.5661 31.7415ZM24.9227 33.959H22.9277V26.9832H24.9227V33.959ZM30.2843 31.7415L25.5062 26.9782H28.3292L31.6958 30.3344L30.2843 31.7415ZM33.9152 24.9944H13.9352V23.0056H21.5162L16.1546 17.6607L17.5661 16.2536L22.9277 21.5985V14.041H24.9227V21.5985L30.2843 16.2536L31.6958 17.6607L26.3342 23.0056H33.9152V24.9944Z" fill="black"/>
</svg> 